<svg xmlns="http://www.w3.org/2000/svg" width="280" height="280" viewBox="0 0 480 480">
    <path fill="#8C6239" d="M251.854008 32.321481c23.443815 17.1747373 38.782639 42.4324875 43.190442 71.1201296 2.297521 14.9540694 1.426024 30.3276094-2.503585 44.8461534l20.742379-11.918371c3.081047-1.770113 6.586203-2.826305 10.136201-3.053461 3.541098-.22784 7.147918.37199 10.426471 1.730146l.362154.150299c.716777.296841 1.26035.901111 1.47908 1.644408.218388.742956.088314 1.545006-.353596 2.181386-.274525.394876-.542204.801708-.795506 1.209565-3.955282 6.361065-5.191671 13.877724-3.481196 21.166201 1.710476 7.288478 6.162435 13.476015 12.536412 17.422731 2.083582 1.29018 4.331469 2.304699 6.680677 3.015203 1.065581.322118 1.801527 1.293255 1.822065 2.404101.179366 9.568241 5.138615 18.285242 13.266881 23.31821 8.127924 5.033309 18.156984 5.597614 26.828139 1.509139 1.006706-.474125 2.205099-.247311 2.967745.562255 1.680695 1.785484 3.589704 3.344836 5.673287 4.634675 5.701014 3.530319 12.486093 4.907946 19.105841 3.880106 6.550946-1.017935 12.540519-4.311533 16.865828-9.274475.683574-.783946 1.773458-1.077712 2.759283-.745688.986168.332366 1.673507 1.226645 1.739914 2.263367l2.653513 41.323349c1.226462 19.10198-2.800018 37.817283-11.967851 55.62635-7.119164 13.829901-17.35429 27.087299-30.421266 39.403621-18.993567 17.902321-39.319367 29.452459-48.795612 34.332053 2.517619 11.235877 1.468811 23.207194-3.008137 33.940935-4.896607 11.739378-13.34424 21.200018-24.42964 27.358862-13.049177 7.250561-28.200764 8.979683-42.662615 4.871054-14.462193-4.109311-26.42799-13.543991-33.692974-26.566376l-21.179155-37.961775-8.809102 42.549994c-3.021828 14.596426-11.605354 27.175429-24.169149 35.419672-9.312626 6.11068-19.949954 9.274133-30.788213 9.274133-3.784131 0-7.591882-.385312-11.377382-1.165843-14.62684-3.015544-27.2320537-11.580881-35.4934748-24.118893-8.2614211-12.537671-11.1470137-27.481151-8.1251855-42.077577l16.3557995-79.003313-25.7409929 3.938176c-14.7637602 2.259951-29.569281-1.387192-41.6901395-10.267131-12.1215431-8.879939-20.04340216-21.883879-22.30703496-36.616257-2.26363279-14.73272 1.39042438-29.507797 10.28886656-41.603793 8.8984422-12.095997 21.9294776-20.001384 36.6925531-22.26031l44.0013521-6.732713c-25.2621146-16.94314-42.194348-43.436075-46.8403919-73.676237-4.4074604-28.6876425 2.643244-57.370844 19.85411-80.7662527 17.210866-23.3954087 42.5212453-38.70233905 71.2683203-43.10063489 28.747418-4.39897903 57.490386 2.63774778 80.934885 19.81282659zm174.871889 337.149402c1.175897 7.657969-4.108243 14.843262-11.779625 16.017395-.719235.109925-1.435028.163513-2.14153.163857-6.827915.000343-12.838862-4.982679-13.904637-11.922359-.569882-3.709613.341722-7.418539 2.566533-10.443872 2.224811-3.024988 5.496814-5.004663 9.213091-5.573179 7.672758-1.172072 14.87027 4.10122 16.046168 11.758158zM384.11096 153.765017c.569503 3.70942-.342046 7.418497-2.566376 10.443329-2.225019 3.025175-5.496822 5.004402-9.212871 5.572889-.722632.110606-1.445264.165566-2.163079.165566-2.972083 0-5.857449-.938433-8.298569-2.72702-3.030582-2.22105-5.013347-5.487016-5.583194-9.196093-.569847-3.70942.341702-7.418153 2.566377-10.443328 2.224674-3.024832 5.496477-5.004403 9.212527-5.57289 7.672976-1.172354 14.869015 4.100663 16.045185 11.757547zm8.874299-50.9676679c3.031138 2.220651 5.013699 5.4865364 5.583586 9.1958649.569887 3.709329-.341726 7.41797-2.566557 10.442727-2.224831 3.0251-5.496864 5.004623-9.213175 5.573095-.719241.109917-1.435042.163501-2.14155.163844-6.827633.000344-12.838634-4.982295-13.90442-11.921443-1.176252-7.6570382 4.107937-14.84178 11.779732-16.0158226 3.716999-.5684729 7.432278.3410838 10.462384 2.5617347z"/>
    <path fill="#A67C52" d="M171.679302 17.53098172c27.399102-4.19105932 54.793753 2.51388398 77.138146 18.88214528 22.344393 16.3682612 36.963433 40.4394347 41.164563 67.7792039 2.543618 16.5561701 1.130915 32.9439061-4.19976 48.7088081-.341363 1.009585-.020886 2.124399.80496 2.800189.825503.67579 1.983809.771111 2.909633.239499l26.368164-15.149926c2.402896-1.380621 5.136198-2.204005 7.904424-2.381323 1.875271-.119578 3.772114.056715 5.597397.513505-4.015212 7.212298-5.18516 15.539411-3.286948 23.628391 2.023527 8.622642 7.291203 15.942903 14.83235 20.612277 1.945462 1.204327 4.011445 2.205713 6.161656 2.987073.773802 10.591932 6.516373 20.12303 15.613684 25.756207 9.097312 5.632836 20.205824 6.5348 30.060502 2.524134 1.656485 1.576046 3.472865 2.978532 5.417985 4.182859 6.745432 4.177052 14.77517 5.806054 22.609061 4.589769 5.828853-.905381 11.284158-3.336585 15.808847-6.986466l2.30052 35.823359c1.166524 18.169115-2.673384 35.989744-11.413924 52.967515-6.854312 13.314565-16.74186 26.108451-29.387705 38.027022-19.831591 18.690819-41.158057 30.28926-49.406925 34.407889-1.08709.542887-1.643816 1.772497-1.333611 2.945392 2.838759 10.730984 2.024897 22.340017-2.291618 32.689033-4.449705 10.667095-12.1237 19.262064-22.192715 24.855951-11.854238 6.585364-25.62278 8.155261-38.769542 4.420308-13.146419-3.734952-24.021079-12.306347-30.620995-24.135404l-24.545278-43.992286c-.522146-.935446-1.572599-1.449293-2.63264-1.285982-1.060725.161943-1.908826.965512-2.125559 2.014045l-10.209395 49.309434c-2.744943 13.258534-10.546649 24.687516-21.967421 32.181336-11.421115 7.493479-25.028391 10.112251-38.315876 7.373217-13.287141-2.739375-24.7407829-10.523942-32.2507725-21.920808-7.5099896-11.396183-10.1340692-24.974163-7.3891258-38.232697l17.1075331-82.628134c.170168-.822017-.0736139-1.674784-.652596-2.283268-.488591-.513163-1.1634424-.79776-1.8619186-.79776-.1290812 0-.2595319.009566-.3892979.029724l-29.3990037 4.497864c-13.4114295 2.050602-26.8653153-1.263434-37.8837787-9.33499-11.0184634-8.071214-18.21927455-19.886605-20.27532851-33.268818-2.05639636-13.382213 1.26581707-26.807132 9.35478871-37.801872 8.0889717-10.994741 19.9298567-18.180048 33.3406014-20.232017l50.8333235-7.777051c1.075106-.164677 1.929712-.987036 2.133434-2.052994.20338-1.066299-.28795-2.144557-1.227127-2.692227-27.1888739-15.851681-45.515659-42.730561-50.2810477-73.744126-4.200787-27.3397694 2.5193081-54.6754388 18.9228867-76.9720657C120.1574315 36.310631 144.2802 21.723066 171.679302 17.53098172zM412.863276 362.725356c4.32446 0 8.132244 3.15612 8.807263 7.551187.74524 4.85031-2.601974 9.401362-7.461011 10.145211-4.861791.744193-9.41929-2.597803-10.164187-7.448113-.361088-2.349396.216516-4.698791 1.625761-6.614934 1.409245-1.916142 3.481805-3.169519 5.835595-3.529934.456094-.069747.908746-.103417 1.356579-.103417zm-42.625277-215.746233c4.324195 0 8.131746 3.155956 8.806724 7.550795.361066 2.349273-.216158 4.698547-1.625317 6.614246-1.409158 1.916386-3.481592 3.169698-5.835582 3.530094-2.354334.360396-4.707291-.2161-6.6269-1.622641-1.919264-1.406541-3.175253-3.475124-3.53632-5.824742-.361067-2.349273.216503-4.698546 1.625661-6.614589 1.409158-1.916042 3.481592-3.169355 5.835238-3.529751.456066-.069743.90869-.103412 1.356496-.103412zm14.474472-41.7808944c1.882911 0 3.711091.5943466 5.25735 1.7270409 1.919743 1.4068495 3.175821 3.4753825 3.536569 5.8245975.361092 2.349215-.216518 4.698431-1.625776 6.614426-1.409257 1.916338-3.481836 3.16962-5.835648 3.530007-4.860114.743792-9.419031-2.597604-10.163934-7.447198-.745248-4.849938 2.601997-9.4006411 7.461423-10.1440898.457819-.0700848.915295-.1047836 1.370016-.1047836z"/>
    <path fill="#F2F2F2" d="M226.236562 295.440809c.957216 6.22692-3.327319 12.04914-9.569764 13.004028-6.242446.954887-12.07852-3.319567-13.035736-9.546487-.957216-6.226921 3.327319-12.04914 9.569765-13.004028 6.242445-.954888 12.078861 3.319567 13.035735 9.546487zm129.991623-75.184377c2.584505-2.760279 6.94648-2.930456 9.742998-.379156 2.796519 2.551301 2.968543 6.858152.384384 9.619111l-23.120573 24.701599 25.019392 22.826244c2.796518 2.5513 2.968543 6.858151.384383 9.619451-1.358958 1.451273-3.209514 2.18678-5.065586 2.18678-1.673705 0-3.351547-.597663-4.677411-1.807625l-25.019393-22.826243-23.120918 24.701258c-1.358614 1.451274-3.209515 2.187121-5.065242 2.187121-1.673705 0-3.351547-.598003-4.677756-1.807965-2.796518-2.551301-2.968543-6.858152-.384383-9.619451l23.120573-24.701259-25.019393-22.826243c-2.796518-2.551301-2.968542-6.858492-.384383-9.619451 2.584504-2.760279 6.94648-2.930456 9.743343-.379156l25.019047 22.826243zm-134.566209 44.000771c.957217 6.226918-3.327318 12.049135-9.569764 13.004023-6.242445.954887-12.078862-3.319566-13.035735-9.546484-.957216-6.227259 3.327318-12.049477 9.569764-13.004023 6.242446-.954887 12.078862 3.319224 13.035735 9.546484zm-4.574585-31.183619c.957216 6.227259-3.327319 12.049477-9.569764 13.004023-6.242446.954887-12.078862-3.319225-13.035736-9.546484-.957216-6.226918 3.327319-12.049136 9.569764-13.004023 6.242446-.954887 12.078862 3.319566 13.035736 9.546484zm-48.884662-105.351316c1.595114 10.378387-5.545709 20.081768-15.949753 21.673346-10.404043 1.591233-20.1310889-5.532563-21.7262026-15.910949-1.5951137-10.378732 5.5457096-20.082113 15.9497536-21.673346 10.403697-1.591233 20.131089 5.532218 21.726202 15.910949zm78.530388-11.408641c1.59511 10.378384-5.545698 20.082108-15.94972 21.673341-10.404022 1.591232-20.131047-5.532217-21.726157-15.910946-1.595456-10.378385 5.545698-20.0821086 15.949374-21.6733413 10.404021-1.5912326 20.131392 5.5322166 21.726503 15.9109463z"/>
    <path fill="#FF9EAD" d="M172.891217 26.3231804c25.048116-3.8372164 50.089746 2.3016473 70.51475 17.2877772 20.425687 14.9854473 33.789349 37.0239338 37.629878 62.0557561 3.025168 19.7190943-.241057 39.7661193-9.205934 57.3497493l-13.823924 7.954588c-.941012-1.632821-.924281-3.691849.134186-5.329789 11.152831-17.257066 15.572444-37.98793 12.445185-58.3731204-3.412362-22.2415228-15.286999-41.8237813-33.435957-55.1395533-18.1493-13.3161133-40.39999-18.7714781-62.65546-15.36115-22.255128 3.4099869-41.849065 15.2775468-55.1727781 33.4160292-13.3240547 18.1388236-18.7823315 40.3769345-15.370311 62.6181155 3.8705759 25.22974 18.7604793 47.09829 40.8513751 59.998094 7.940211 4.636395 12.118084 13.81705 10.396197 22.844831-1.721546 9.02778-8.985022 16.028951-18.074866 17.421542l-50.6917056 7.76759c-8.3062367 1.272817-15.6516583 5.746441-20.6838167 12.597126-5.0321584 6.850344-7.1023156 15.194967-5.8287404 23.495912 1.2735752 8.300945 5.7498675 15.64233 12.6046383 20.671148 6.8547708 5.029159 15.2043705 7.099106 23.5099244 5.825266l29.3174955-4.492392c7.0394904-1.077287 14.1691215 1.358808 19.0732395 6.519684 4.904118 5.160536 6.971543 12.40228 5.530662 19.372057l-17.0597612 82.527621c-1.7000351 8.223825-.0631666 16.663995 4.6087712 23.764807 4.67228 7.101495 11.777327 11.947751 20.005715 13.646772 3.67254.757889 7.399028.857189 11.076348.293465 13.102118-2.007842 23.694644-12.011562 26.357543-24.893963l10.18109-49.24911c1.830124-8.854091 9.06765-15.723203 18.009309-17.093613 8.941658-1.36768 17.90551 3.017222 22.306003 10.915848l24.477568 43.938772c6.402703 11.492539 19.50687 17.867198 32.609329 15.85765 3.676637-.563042 7.202358-1.77307 10.479509-3.596644 7.341666-4.084272 12.667122-10.835657 14.996092-19.009662 1.724277-6.052871 1.650526-12.3586-.213401-18.235735-.31993-1.009039-.312077-2.071653-.010926-3.050663 1.016128.360005 1.879291.654152 2.566612.882781 2.53998.844563 5.18171 1.186142 7.851438 1.015182.083653-.00546.166281-.015356.249593-.021498 1.908655 7.270407 1.822612 14.941086-.275202 22.303969-3.101992 10.887867-10.212502 19.890055-20.021421 25.347809-4.380006 2.436777-9.096672 4.054584-14.019911 4.80906-17.447638 2.673938-34.908593-5.831067-43.4494-21.162529l-24.476885-43.938431c-2.262047-4.060385-6.869453-6.315283-11.466957-5.61131-4.596138.704655-8.31648 4.23544-9.257492 8.786526l-10.181089 49.24911c-3.552353 17.184724-17.661722 30.527112-35.109019 33.200709-2.098155.321787-4.208261.482168-6.318708.482168-2.84079 0-5.681921-.290734-8.49881-.872544-10.995085-2.270254-20.4775861-8.729539-26.7010324-18.188644-6.2231048-9.458764-8.3997916-20.719604-6.1288671-31.708136l17.0601025-82.527621c.740586-3.582653-.32232-7.305555-2.842838-9.958335-2.5208594-2.652781-6.1852049-3.904782-9.8044802-3.350612l-29.3174954 4.492393c-11.097176 1.699021-22.2380565-1.05306-31.3692149-7.752577-9.1311583-6.699516-15.097158-16.496788-16.7985588-27.58735-1.7014009-11.090562 1.0533456-22.22412 7.756858-31.350177 6.703171-9.125716 16.5062854-15.08816 27.6038028-16.788546l50.6920475-7.767932c4.672621-.715917 8.406279-4.314267 9.290953-8.955098.885356-4.641172-1.262308-9.360146-5.343553-11.743349-24.8575922-14.515222-41.6121052-39.125275-45.9685517-67.519652-3.8398462-25.0314809 2.30302-50.0588671 17.2980872-70.4727216 14.9947257-20.4135132 37.0463555-33.7695512 62.0927645-37.60745zM324.799249 150.566566l.296143.012886c-.492101 3.575692-.387333 7.238696.325223 10.867252l-.441935-.18315-81.838216 47.09279 3.582576 55.872404c3.918379 61.11384 78.995498 89.213922 90.962217 93.310074 6.441675-3.166417 26.244128-13.643154 44.580516-30.95204 10.759672-10.156138 19.091602-20.901973 24.764754-31.939074 6.844365-13.315734 9.857715-27.197632 8.956099-41.25961l-1.911413-29.813235c1.990245.05457 3.992433-.067871 5.981654-.377214 1.422724-.221691 2.822925-.535126 4.193095-.934851l1.953729 30.471144c1.021399 15.931678-2.365633 31.606538-10.066568 46.589383-6.20518 12.071882-15.235675 23.74711-26.841679 34.702356-19.936228 18.818426-41.530992 30.000478-47.674746 32.978971-1.014232.491811-2.539677.846856-4.050106.846856-.812546 0-1.620656-.10266-2.342086-.342426-6.408914-2.130954-29.040093-10.328716-51.261075-26.364759-13.02634-9.400346-23.572041-19.855254-31.344641-31.073459-9.666267-13.951133-15.088591-29.154645-16.116815-45.18796l-3.749454-58.477774c-.148108-2.30933 1.006725-4.460747 3.013691-5.614218l85.896513-49.428041c1.043923-.600269 2.245168-.863568 3.428667-.783419zm-103.025765.758589c2.428923 15.8454-8.444967 30.659738-24.287857 33.089337-15.84289 2.429255-30.655203-8.446122-33.084469-24.291522zm-92.3240296-45.4993196l44.4309636 8.1217366c2.780883.50822 4.617849 3.145703 4.102706 5.891369-.456425 2.433589-2.608826 4.135517-5.029211 4.135517-.309291 0-.623019-.027972-.938113-.085602l-44.4309638-8.121737c-2.7808825-.507882-4.6178489-3.145703-4.1027063-5.8910311.5148012-2.7449914 3.1871248-4.5577979 5.9673245-4.0502525zM249.390221 82.6397719c.426614 2.7339451-1.483802 5.2896111-4.267504 5.708934l-44.474641 6.6971471c-.262088.039395-.522136.0584247-.779124.0584247-2.475044 0-4.647208-1.7727742-5.033711-4.2496503-.426614-2.7336112 1.483803-5.2896111 4.267165-5.7089339l44.474981-6.6971471c2.784721-.4193229 5.38588 1.4572805 5.812834 4.1912255z"/>
</svg>
